<?xml version="1.0" encoding="UTF-8"?>
<svg id="_圖層_2" data-name="圖層 2" xmlns="http://www.w3.org/2000/svg" viewBox="0 0 190.57 44.19">
  <g id="_圖層_1-2" data-name="圖層 1">
    <g>
      <g>
        <path d="M41.39,23.9c2.02,1.6,3.18,3.48,3.18,5.5,0,5.01-7.19,9.2-16.78,10.21v-11.9c-.89,.94-2.08,1.61-3.42,1.86v10.26c-.35,0-.7,.01-1.05,.01s-.72,0-1.08-.01v-10.26c-1.33-.23-2.52-.89-3.42-1.83v11.87c-9.58-1.02-16.75-5.2-16.75-10.2,0-2.02,1.17-3.9,3.18-5.5C1.97,26,0,28.69,0,31.62c0,6.73,10.45,12.2,23.33,12.2s23.33-5.46,23.33-12.2c0-2.93-1.97-5.62-5.26-7.72Z" fill="#096b37"/>
        <path d="M11.63,35.11h4.99V10.44l-4.99,5.07v19.59ZM29.92,5.08v30.03h5V0l-5,5.08Zm-6.61,14.05c-2.42,0-4.37,1.96-4.37,4.37s1.95,4.37,4.37,4.37,4.37-1.95,4.37-4.37-1.96-4.37-4.37-4.37Z" fill="#9d2124" fill-rule="evenodd"/>
      </g>
      <g>
        <path d="M147.51,39.56c0,.42-.34,.76-.76,.76s-.76-.34-.76-.76,.34-.76,.76-.76,.76,.34,.76,.76Z" fill="#9b9b9b"/>
        <g>
          <path d="M108.26,35.94l-.66,.44h4.22v.91h-3.64v1.96h3.16v.88h-3.16v2.47h3.99v.96h-9.14v-.96h4.08v-2.47h-3.24v-.88h3.24v-1.96h-3.76v-.91h3.83c-.25-.37-.55-.77-.91-1.21l.8-.51c.5,.49,.9,.92,1.2,1.28Z" fill="#9b9b9b"/>
          <path d="M122.43,39.21v.88h-3.99v.96h3.47v.84h-3.47v1.05c.5,.04,1.08,.06,1.76,.06,.94,0,1.74-.02,2.39-.08l-.28,1c-3.12,0-4.98-.11-5.58-.34-.6-.2-1.11-.61-1.54-1.23-.29,.55-.77,1.13-1.42,1.76l-.72-.87c.54-.45,.95-.9,1.22-1.34,.27-.41,.49-.96,.65-1.66l1,.15c-.12,.45-.25,.83-.36,1.13,.41,.59,.92,.98,1.51,1.16,.11,.04,.25,.08,.4,.1v-2.72h-4.35v-.88h9.31Zm-.96-4.27v3.71h-7.3v-3.71h7.3Zm-1,1.48v-.64h-5.3v.64h5.3Zm0,.72h-5.3v.67h5.3v-.67Z" fill="#9b9b9b"/>
          <path d="M132.25,35.17v.84h-3.8v3.64h4.16v.88h-4.16v3.56h-.95v-3.56h-4.08v-.88h4.08v-3.64h-3.72v-.84h8.47Zm-6.03,3.64l-.92,.44c-.31-.86-.62-1.62-.96-2.32l.88-.4c.34,.69,.67,1.45,1,2.28Zm5.47-1.88c-.3,.8-.68,1.57-1.15,2.32l-.88-.44c.48-.78,.87-1.54,1.15-2.28l.88,.4Z" fill="#9b9b9b"/>
          <path d="M138.7,37.13c-.29,.49-.55,.94-.81,1.36h5.04v.92h-1.57c-.44,1.1-.94,1.96-1.5,2.55,.9,.39,1.83,.84,2.8,1.35l-.63,.8c-.91-.55-1.89-1.04-2.94-1.49-1,.62-2.62,1.11-4.84,1.46l-.4-1c1.84-.17,3.21-.48,4.11-.91-.98-.37-2.01-.71-3.12-1.01,.42-.53,.85-1.11,1.29-1.75h-2.6v-.92h3.21c.34-.51,.67-1.06,1.02-1.63l.95,.28Zm.1-1.52h3.89v2.32h-.96v-1.4h-6.94v1.4h-.96v-2.32h3.92c-.12-.27-.27-.51-.41-.76l1.07-.15c.12,.28,.26,.58,.38,.91Zm-1.5,3.8c-.33,.5-.62,.94-.91,1.31,.79,.21,1.61,.49,2.48,.84,.53-.49,.99-1.21,1.39-2.15h-2.96Z" fill="#9b9b9b"/>
          <path d="M155.65,35.06v.88h-.6v8.14h-.96v-1.94c-.98,.27-2.08,.53-3.31,.78l-.24-.99c.21-.02,.43-.05,.63-.09v-5.89h-.52v-.88h5Zm-1.56,2.11v-1.24h-1.95v1.24h1.95Zm0,2.11v-1.32h-1.95v1.32h1.95Zm0,1.96v-1.16h-1.95v1.59c.65-.11,1.31-.26,1.95-.43Zm5.63-6.15v.72c-.37,.99-.77,1.91-1.2,2.75,.51,.74,.83,1.3,.96,1.69,.18,.43,.28,.85,.28,1.24,0,.55-.13,.96-.4,1.23-.27,.28-.93,.41-1.99,.41l-.29-1c.29,.06,.58,.08,.88,.08s.51-.06,.65-.19c.09-.08,.14-.26,.14-.52,.01-.26-.05-.57-.19-.96-.15-.39-.5-1.04-1.04-1.96,.47-.93,.84-1.79,1.12-2.58h-1.69v8.1h-.95v-8.98h3.71Z" fill="#9b9b9b"/>
          <path d="M161.99,41.76c-.08,.89-.21,1.62-.4,2.24l-.88-.29c.26-.63,.43-1.31,.51-2.03l.77,.08Zm.99-6.82c-.06,.18-.12,.34-.18,.48h1.82v.59c-.18,.43-.37,.79-.55,1.08h1.36v4.31h-4.2v-3.67c-.08,.08-.16,.16-.24,.24l-.2-1.04c.63-.61,1.08-1.36,1.36-2.23l.84,.24Zm.09,2.16c.21-.25,.44-.55,.66-.92h-1.32c-.07,.12-.14,.22-.2,.32-.12,.2-.27,.4-.43,.6h1.29Zm-.13,1.8v-1.08h-.88v1.08h.88Zm0,.67h-.88v1.12h.88v-1.12Zm.29,4.19l-.84,.08c-.02-.87-.04-1.54-.08-2.03l.72-.08c.1,.51,.16,1.19,.2,2.03Zm1.36-.19l-.81,.08c-.04-.81-.14-1.43-.32-1.88l.68-.08c.21,.47,.36,1.09,.44,1.88Zm-.92-4.67h.92v-1.08h-.92v1.08Zm.92,.67h-.92v1.12h.92v-1.12Zm1.31,3.64l-.76,.28c-.1-.58-.24-1.15-.4-1.72l.64-.16c.21,.59,.39,1.12,.51,1.6Zm3.91-7.55c-.45,.19-.97,.34-1.55,.43v1.57h1.68v.84h-1.56c.18,.52,.42,1.01,.68,1.47,.29,.48,.68,1,1.2,1.56l-.63,.8c-.49-.65-.88-1.32-1.16-1.99-.07-.14-.13-.3-.19-.46v4.13h-.88v-3.91s-.03,.08-.05,.12c-.37,.84-.8,1.57-1.31,2.19l-.4-1.07c.69-.82,1.26-1.77,1.71-2.83h-1.67v-.84h1.72v-1.46c-.44,.04-.91,.06-1.4,.06l-.28-.84c1.44,0,2.67-.18,3.67-.56l.44,.8Z" fill="#9b9b9b"/>
          <path d="M180.15,35.54c-.5,.07-1.03,.13-1.58,.18l.54,.17c-.17,.37-.36,.71-.55,.99h1.63v1.88h-.92v-1.07h-7.22v1.07h-.92v-1.88h2.03c-.14-.2-.31-.43-.51-.67l.65-.25c-.57,.01-1.14,.01-1.74,.01l-.23-.81c3.29,0,6.08-.13,8.38-.4l.44,.77Zm-5.59,2.47v1.07c0,.19,.11,.29,.36,.29h1.56c.2,0,.35-.02,.45-.07,.1-.04,.18-.27,.22-.65l.88,.29c-.09,.57-.25,.9-.45,1-.18,.1-.51,.15-.99,.15h-1.24c-.14,.2-.3,.4-.46,.56h3.74v.72c-.51,.53-1.06,.97-1.68,1.32,.84,.25,1.91,.43,3.23,.56l-.44,.87c-1.48-.22-2.76-.53-3.82-.93-1.02,.39-2.46,.73-4.32,1.01l-.36-.92c1.44-.13,2.63-.33,3.57-.61-.48-.27-.91-.58-1.29-.95-.45,.27-.95,.51-1.52,.73l-.56-.76c.78-.27,1.43-.57,1.96-.9,.31-.17,.59-.42,.88-.73-.16-.02-.29-.08-.39-.17-.17-.14-.26-.33-.26-.55v-1.32h.92Zm-1.07,.55c-.21,.48-.4,.83-.55,1.04-.14,.25-.4,.52-.77,.84l-.68-.6c.31-.25,.56-.48,.76-.72,.16-.25,.32-.53,.45-.88l.8,.32Zm2.21-1.68c-.16-.25-.35-.51-.57-.8l.48-.18c-.66,.03-1.35,.05-2.06,.06,.2,.27,.4,.57,.56,.92h1.59Zm.16,5.39c.53-.2,1.02-.49,1.45-.88h-2.94c.43,.35,.92,.63,1.49,.88Zm1.02-3.64l-.6,.6c-.27-.27-.63-.56-1.11-.88l.55-.52c.45,.27,.84,.53,1.16,.8Zm.74-1.76c.2-.36,.4-.74,.56-1.13-.67,.06-1.38,.1-2.14,.13,.2,.3,.4,.63,.58,1h.99Zm2.45,3.12l-.8,.56c-.33-.55-.79-1.2-1.36-1.92l.68-.4c.62,.68,1.11,1.27,1.47,1.76Z" fill="#9b9b9b"/>
          <path d="M184.14,35.06c-.28,.82-.55,1.51-.84,2.08v6.86h-.92v-5.38c-.28,.37-.57,.75-.88,1.11l-.32-1.12c.43-.53,.81-1.09,1.14-1.67,.33-.51,.65-1.26,.97-2.24l.84,.36Zm2.39-.12c-.13,.35-.27,.66-.4,.96h4.31c-.16,.9-.45,1.78-.84,2.64l-.96-.29c.27-.4,.49-.89,.67-1.47h-3.62c-.44,.86-.9,1.56-1.37,2.11l-.67-.84c.84-.99,1.48-2.09,1.91-3.32l.96,.2Zm-.36,3.95c-.37,1.39-.89,2.58-1.55,3.59l-.88-.55c.69-1,1.19-2.08,1.47-3.24l.96,.2Zm1.59-1.52v5.63c0,.37-.09,.62-.26,.77-.16,.15-.45,.23-.86,.23h-1.44l-.19-1c.54,.06,.99,.08,1.35,.08,.27,0,.4-.08,.4-.25v-5.47h1Zm2.8,4.91l-.92,.4c-.43-1.42-.89-2.69-1.4-3.79l.92-.29c.53,1.15,.99,2.38,1.4,3.68Z" fill="#9b9b9b"/>
        </g>
        <g>
          <g>
            <rect x="81.73" y="34.98" width="1.09" height="8.25" fill="#9b9b9b"/>
            <rect x="79.75" y="39.75" width="5.11" height=".79" fill="#9b9b9b"/>
            <rect x="79.53" y="41.24" width="5.62" height=".79" fill="#9b9b9b"/>
            <rect x="79.49" y="36.83" width="6.05" height=".79" fill="#9b9b9b"/>
            <path d="M84.66,35.46h-4.66v.77h3.85c.07,0,.12,.05,.12,.12v1.85c0,.07-.05,.12-.12,.12h-3.85v.76h5.03v-3.26c0-.2-.16-.36-.37-.36Z" fill="#9b9b9b"/>
            <path d="M77.01,35.37v.82h1.04s.16-.03,.1,.17c-.07,.2-1.21,2.66-1.21,2.66h1.49s-.03,1.43-.39,2.31c-.35,.88-1.43,2.19-1.43,2.19h1.25s1.27-1.53,1.49-2.94c.22-1.42,.18-1.98,.18-1.98,0,0-.03-.31-.35-.31h-.76l.92-2.11s.34-.82-.35-.82-1.99,.02-1.99,.02Z" fill="#9b9b9b"/>
            <path d="M76.87,39.82h1s.03,1.07,.61,1.9c.58,.83,1.64,1.02,2.39,1.02h4.56v.86h-5.06s-1.51,.05-2.52-1.32c-1.01-1.37-.98-2.47-.98-2.47Z" fill="#9b9b9b"/>
          </g>
          <g>
            <path d="M75.46,42.06c-.06,.45-.15,.79-.29,1.01-.24,.36-.51,.54-.82,.54h-6.13c-.38,0-.68-.11-.88-.3-.17-.16-.25-.42-.25-.69v-4.29c0-.24,.08-.32,.24-.32h7.32c.23,0,.37,.15,.37,.36v2.58c0,.23-.13,.37-.37,.37h-6.36v.78c0,.21,.03,.35,.08,.43,.08,.09,.17,.15,.27,.16h5.34c.11,0,.21-.04,.29-.08,.1-.07,.17-.14,.22-.22,.03-.06,.08-.2,.08-.33h.9Zm-7.18-1.57h2.3v-1.67h-2.19c-.07,0-.1,.03-.1,.1v1.57Zm3.28-1.67v1.67h2.24c.08,0,.11-.04,.11-.11v-1.46c0-.07-.04-.1-.11-.1h-2.24Z" fill="#9b9b9b"/>
            <path d="M74.37,35.17h-6.71c-.33,0-.61,.27-.61,.6v1.84h7.92v-1.84c0-.33-.27-.6-.61-.6Zm-.52,1.59s-.01,.04-.05,.05h-5.52l-.04-.05v-.77s0-.04,.04-.04h5.52l.05,.04v.77Z" fill="#9b9b9b"/>
          </g>
          <g>
            <rect x="86.98" y="35.17" width="3.14" height=".79" fill="#9b9b9b"/>
            <rect x="86.98" y="37.71" width="3.14" height=".79" fill="#9b9b9b"/>
            <rect x="86.98" y="39.01" width="3.14" height=".79" fill="#9b9b9b"/>
            <rect x="86.64" y="36.4" width="3.78" height=".79" fill="#9b9b9b"/>
            <path d="M86.8,43.6v-2.83c0-.26,.22-.47,.49-.47h2.49c.27,0,.49,.21,.49,.47v2.83h-3.47Zm2.27-2.33c0-.06-.05-.12-.12-.12h-.89c-.07,0-.12,.05-.12,.12v1.42c0,.07,.06,.12,.12,.12h.89c.07,0,.12-.05,.12-.12v-1.42Z" fill="#9b9b9b"/>
            <g>
              <path d="M91.02,40.04h1.19s.64,1.71,3.39,3.56h-1.63s-1.68-.86-2.95-3.56Z" fill="#9b9b9b"/>
              <path d="M90.86,38.92v.76h2.8s.29-.03,.16,.31c-.12,.33-.49,1.16-1.72,2.3-.94,.87-1.54,1.28-1.54,1.28h1.63s1.02-.7,2-1.9c.98-1.2,1.05-2.3,1.05-2.3,0,0,.01-.46-.65-.46s-3.73,0-3.73,0Z" fill="#9b9b9b"/>
              <path d="M94.84,37.6s-.18,.06-.18-.15v-1.77s.01-.6-.68-.6h-2.36s-.65,.05-.65,.67v2.65h1.06v-2.32s.02-.21,.18-.21h1.03s.27-.07,.27,.27,0,2.27,0,2.27h1.9v-.82h-.57Z" fill="#9b9b9b"/>
            </g>
          </g>
          <g>
            <path d="M61.98,37.85v-.61h.71v-.31h-.71v-.6h.71v-.32h-.71s0-.6,0-.6h.71v-.44h.71v.44h.66v.61h-.66v.32h.65v.6h-.65v.31h.66v.61h-.66v.33h.83c.09,0,.14-.05,.14-.14v-2.93h1.03v3.44c0,.23-.12,.35-.36,.35h-7.61c-.24,0-.36-.12-.36-.35v-3.44h1.03v2.93c0,.09,.05,.14,.13,.14h.87v-.33h-.65v-.61h.65v-.31h-.65v-.6h.65v-.32h-.64v-.61h.64v-.48h.66v.48h.62v.61h-.62v.32h.62v.6h-.62v.31h.61v.61h-.61v.33h1v-3.26h.86v3.26h1.06v-.33h-.71Z" fill="#9b9b9b"/>
            <polygon points="63.57 42.26 63.31 42.71 65.65 42.71 65.65 43.55 56.89 43.55 56.89 42.71 59.29 42.71 58.99 42.26 60.03 42.26 60.35 42.71 62.31 42.71 62.58 42.26 63.57 42.26" fill="#9b9b9b"/>
            <rect x="57.04" y="39.28" width="8.46" height=".73" fill="#9b9b9b"/>
            <path d="M64.3,40.35h-6.05c-.33,0-.59,.24-.59,.54v1.39h7.23v-1.39c0-.3-.26-.54-.59-.54Zm-.55,1.15s-.02,.04-.04,.04h-4.89l-.04-.04v-.37s0-.04,.04-.03h4.89l.04,.03v.37Z" fill="#9b9b9b"/>
          </g>
        </g>
        <g>
          <g>
            <path d="M120.88,24.22c-.19,1.49-.53,2.63-.99,3.38-.81,1.24-1.74,1.91-2.74,1.91h-20.86c-1.31-.03-2.3-.33-2.99-1.07-.59-.47-.87-1.34-.87-2.3V11.59c0-.82,.28-1.12,.79-1.12h24.89c.78,0,1.24,.5,1.24,1.21v8.75c0,.8-.4,1.28-1.24,1.28h-21.62v2.7c.02,.71,.08,1.18,.25,1.42,.23,.29,.56,.52,.89,.57h18.15c.4-.04,.72-.15,1-.34,.35-.2,.59-.43,.75-.76,.09-.16,.27-.66,.29-1.09l3.05,.02Zm-24.38-5.38h7.79v-5.6h-7.44c-.27,0-.35,.03-.35,.31v5.28Zm11.12-5.6v5.6h7.6c.27,0,.38-.1,.38-.38v-4.9c0-.28-.11-.31-.38-.31h-7.6Z" fill="#9b9b9b"/>
            <path d="M117.21,.83h-22.78c-1.13,0-2.06,.89-2.06,2.02v6.22h26.92V2.85c0-1.13-.94-2.02-2.08-2.02Zm-1.73,5.37c0,.13-.08,.18-.17,.22h-18.75l-.12-.22V3.64c-.04-.12,.02-.18,.12-.17h18.75l.17,.17v2.55Z" fill="#9b9b9b"/>
          </g>
          <g>
            <path d="M74.67,9.95v-2.08h2.38v-1.04h-2.38v-2.06h2.38v-1.09h-2.38V1.65h2.38V.1h2.44V1.65h2.24V3.68h-2.24v1.09h2.22v2.06h-2.22v1.04h2.26v2.08h-2.26v1.12h2.82c.35-.03,.49-.22,.49-.5V.65h3.51V12.36c0,.78-.42,1.19-1.24,1.19h-25.85c-.82-.04-1.25-.43-1.25-1.19V.65h3.5V10.57c.06,.31,.18,.5,.48,.5h2.98v-1.12h-2.24v-2.08h2.24v-1.04h-2.24v-2.06h2.24v-1.09h-2.24V1.65h2.24V0h2.23V1.65h2.1V3.68h-2.1v1.09h2.1v2.06h-2.1v1.04h2.07v2.08h-2.07v1.12h3.39V0h2.93V11.07h3.58v-1.12h-2.38Z" fill="#9b9b9b"/>
            <polygon points="80.05 24.86 79.17 26.44 87.13 26.44 87.13 29.27 57.36 29.27 57.36 26.44 65.55 26.44 64.5 24.86 68.03 24.86 69.11 26.44 75.77 26.44 76.71 24.86 80.05 24.86" fill="#9b9b9b"/>
            <rect x="57.88" y="14.81" width="28.75" height="2.44" fill="#9b9b9b"/>
            <path d="M82.52,18.46h-20.55c-1.13,0-2,.79-2,1.83v4.67h24.55v-4.67c0-1.05-.9-1.83-2-1.83Zm-1.86,3.89c0,.08-.05,.1-.14,.1h-16.6l-.12-.1v-1.3c-.03-.1,.01-.15,.12-.13h16.6l.14,.13v1.3Z" fill="#9b9b9b"/>
          </g>
          <g>
            <g>
              <rect x="161.04" y="6.66" width="8.4" height="2.87" fill="#9b9b9b"/>
              <rect x="163.59" y=".78" width="3.64" height="29.11" fill="#9b9b9b"/>
              <path d="M159.25,21.1l2.58,1.2c.13-.29,3.44-8.15,4.18-12.6l-2.8-.44c-.69,4.01-3.93,11.76-3.96,11.84Z" fill="#9b9b9b"/>
              <path d="M164.38,10.05c1.83,3.98,4.32,7.18,4.44,7.28l2.21-1.75s-2.39-3.05-4.04-6.69l-2.6,1.16Z" fill="#9b9b9b"/>
            </g>
            <path d="M171.07,16.05c0-1.66,1.21-2.01,2.15-2.01h5.12v-1.25h-8.27v-2.72h4.89v-1.23h-3.74v-2.7h3.74v-1.23h-4.37V2.21h4.37V.54h3.02v1.67h4.22V.54h3.04v1.67h4.57v2.69h-4.57v1.23h3.92v2.7h-3.92v1.23h5.19v2.72h-8.59v1.25h4.83c1.53,0,2.31,.8,2.31,2.2v6.42h1.59v2.59h-1.59v2.31c-.04,.93-.59,1.47-1.54,2.02-1.33,.66-2.87,.88-5.86,.55l.02-2.77c2.14,.14,2.73-.06,3.4-.23,.56-.32,.83-.69,.83-1.11v-.77h-11.6v4.56h-3.15v-4.56h-1.92v-2.59h1.92v-6.62Zm7.26,.68h-3.46c-.57,0-.65,.22-.65,.62v1.05h4.11v-1.66Zm0,5.94v-1.64h-4.11v1.64h4.11Zm3.87-12.6v-1.23h-4.22v1.23h4.22Zm0-3.93v-1.23h-4.22v1.23h4.22Zm-.37,12.26h3.99v-.84c0-.37,.05-.83-.73-.83h-3.26v1.66Zm3.99,4.27v-1.64h-3.99v1.64h3.99Z" fill="#9b9b9b"/>
          </g>
          <g>
            <g>
              <rect x="126.47" y="6.52" width="8.43" height="2.88" fill="#9b9b9b"/>
              <rect x="128.98" y=".65" width="3.71" height="29.12" fill="#9b9b9b"/>
              <path d="M124.68,21l2.58,1.16c.13-.2,3.46-8.12,4.2-12.5l-2.82-.47c-.69,4.05-3.92,11.72-3.96,11.81Z" fill="#9b9b9b"/>
              <path d="M129.79,10.01c1.82,3.99,4.34,7.11,4.45,7.24l2.2-1.79s-2.38-3-4.06-6.63l-2.6,1.18Z" fill="#9b9b9b"/>
            </g>
            <g>
              <path d="M153.43,20.11h-18.75v-2.86h16.95c-.32-.76-.63-1.56-.63-1.56l2.63-1.07,1.36,3.32s.48,.9,.09,1.58c-.4,.6-1.64,.59-1.64,.59Z" fill="#9b9b9b"/>
              <path d="M138.43,18.36v4.46s.14,1.59-.85,2.71c-.73,.79-1.94,1.2-3.59,1.2v2.85c2.52,0,4.44-.75,5.72-2.2,1.39-1.53,1.57-3.46,1.57-4.35,0-.2,0-.27-.02-.36v-4.3h-2.83Z" fill="#9b9b9b"/>
              <path d="M138.88,18.36v4.66c0,.89,.12,2.82,1.54,4.35,1.31,1.45,3.23,2.2,5.73,2.2v-2.85c-1.67,0-2.87-.41-3.6-1.2-.98-1.12-.84-2.71-.84-2.71h0v-4.46h-2.83Z" fill="#9b9b9b"/>
              <path d="M146.57,26.63l.79,2.74c4.52-1.29,6.21-7.17,6.28-7.41l-2.73-.75c-.38,1.23-1.85,4.75-4.33,5.41Z" fill="#9b9b9b"/>
              <path d="M147.25,15.53h7.29v-2.86h-3.39c.67-1.02,1.86-2.89,2.79-4.23,0,0,.43-.67,.17-1.27-.21-.66-1.1-.64-1.1-.64h-2.9c1.1-1.9,3.44-5.76,3.44-5.76h-3.39s-4.06,7.05-4.06,7.05c0,0-.43,.74-.18,1.19,.2,.4,.75,.4,.75,.4h3.19c-.75,1.17-2.23,3.46-3.15,4.85,0,0-.36,.59-.16,.97,.22,.39,.68,.31,.68,.31Z" fill="#9b9b9b"/>
              <path d="M136.28,15.53h8.11v-2.86h-4.2c.67-1.02,1.86-2.89,2.77-4.23,0,0,.45-.67,.21-1.27-.24-.66-1.14-.64-1.14-.64h-2.87c1.1-1.9,3.44-5.76,3.44-5.76h-3.39s-4.08,7.05-4.08,7.05c0,0-.44,.74-.2,1.19,.25,.4,.79,.4,.79,.4h3.2c-.78,1.17-2.24,3.46-3.15,4.85,0,0-.36,.59-.15,.97,.19,.39,.66,.31,.66,.31Z" fill="#9b9b9b"/>
              <path d="M148.06,26.84c1.75,2.19,3.49,3.15,5.18,2.78,1.67-.27,3.01-1.8,3.82-4.29l-2.72-.9c-.42,1.36-1.09,2.34-1.64,2.4-.2,.04-.99,.01-2.41-1.72-5.02-6.27-4.17-24.31-4.15-24.55h-2.85c-.06,.76-.91,19.2,4.77,26.28Z" fill="#9b9b9b"/>
            </g>
          </g>
        </g>
      </g>
    </g>
  </g>
</svg>