<?xml version="1.0" encoding="UTF-8"?>
<svg id="_圖層_2" data-name="圖層 2" xmlns="http://www.w3.org/2000/svg" viewBox="0 0 151.04 33.63">
  <defs>
    <style>
      .cls-1 {
        fill: #007130;
      }

      .cls-1, .cls-2, .cls-3 {
        stroke-width: 0px;
      }

      .cls-2 {
        fill: #b50005;
      }

      .cls-3 {
        fill: #6d6d6d;
      }
    </style>
  </defs>
  <g id="_圖層_1-2" data-name="圖層 1">
    <g>
      <g>
        <path class="cls-3" d="M115.76,31.9c0,.34-.28.62-.62.62s-.62-.28-.62-.62.28-.62.62-.62.62.28.62.62Z"/>
        <g>
          <path class="cls-3" d="M84.13,26.97l-.54.35h3.4v.73h-2.93v1.58h2.54v.71h-2.54v1.99h3.22v.77h-7.37v-.77h3.29v-1.99h-2.61v-.71h2.61v-1.58h-3.03v-.73h3.09c-.2-.3-.44-.62-.73-.97l.64-.41c.4.4.72.74.96,1.03Z"/>
          <path class="cls-3" d="M95.55,29.61v.71h-3.22v.77h2.8v.68h-2.8v.85c.4.03.87.05,1.42.05.76,0,1.4-.02,1.93-.07l-.22.81c-2.51,0-4.01-.09-4.5-.27-.49-.16-.9-.49-1.24-.99-.23.44-.62.91-1.14,1.42l-.58-.7c.44-.36.77-.72.98-1.08.21-.33.4-.77.53-1.33l.81.12c-.1.36-.2.67-.29.91.33.48.74.79,1.22.94.09.03.2.07.32.08v-2.19h-3.51v-.71h7.5ZM94.78,26.17v2.99h-5.89v-2.99h5.89ZM93.97,27.36v-.52h-4.27v.52h4.27ZM93.97,27.94h-4.27v.54h4.27v-.54Z"/>
          <path class="cls-3" d="M103.46,26.35v.68h-3.06v2.93h3.35v.71h-3.35v2.87h-.77v-2.87h-3.29v-.71h3.29v-2.93h-3v-.68h6.83ZM98.61,29.29l-.74.35c-.25-.69-.5-1.31-.77-1.87l.71-.32c.27.56.54,1.17.81,1.84ZM103.01,27.77c-.24.64-.55,1.27-.93,1.87l-.71-.35c.39-.63.7-1.24.93-1.84l.71.32Z"/>
          <path class="cls-3" d="M108.67,27.94c-.23.4-.44.76-.65,1.1h4.06v.74h-1.27c-.35.89-.76,1.58-1.21,2.06.72.31,1.47.68,2.26,1.09l-.51.64c-.73-.44-1.52-.84-2.37-1.2-.81.5-2.11.9-3.9,1.18l-.32-.81c1.48-.14,2.59-.39,3.31-.73-.79-.3-1.62-.57-2.51-.82.34-.43.68-.9,1.04-1.41h-2.09v-.74h2.59c.27-.41.54-.86.82-1.32l.77.22ZM108.75,26.71h3.14v1.87h-.77v-1.13h-5.59v1.13h-.77v-1.87h3.16c-.1-.21-.21-.41-.33-.61l.86-.12c.1.22.21.47.3.73ZM107.54,29.77c-.26.4-.5.76-.73,1.05.63.17,1.3.4,2,.68.43-.4.8-.97,1.12-1.73h-2.39Z"/>
          <path class="cls-3" d="M122.33,26.26v.71h-.49v6.56h-.77v-1.56c-.79.21-1.68.43-2.67.63l-.19-.8c.17-.02.35-.04.51-.07v-4.75h-.42v-.71h4.03ZM121.07,27.97v-1h-1.57v1h1.57ZM121.07,29.67v-1.06h-1.57v1.06h1.57ZM121.07,31.25v-.94h-1.57v1.28c.53-.09,1.05-.21,1.57-.35ZM125.6,26.3v.58c-.3.8-.62,1.54-.96,2.21.41.59.67,1.05.77,1.36.15.35.22.68.22,1,0,.44-.11.77-.32.99-.21.22-.75.33-1.61.33l-.23-.81c.23.05.47.07.71.07s.41-.05.53-.16c.07-.07.12-.21.12-.42,0-.21-.04-.46-.16-.77-.12-.31-.4-.84-.84-1.58.38-.75.68-1.44.91-2.08h-1.36v6.53h-.77v-7.24h2.99Z"/>
          <path class="cls-3" d="M127.44,31.67c-.07.72-.17,1.31-.32,1.8l-.71-.23c.21-.51.35-1.05.41-1.64l.62.07ZM128.24,26.17c-.05.15-.1.27-.15.39h1.47v.48c-.15.35-.3.63-.44.87h1.09v3.47h-3.38v-2.96c-.07.07-.13.13-.19.19l-.16-.84c.51-.49.87-1.1,1.1-1.8l.68.19ZM128.31,27.9c.17-.2.35-.44.54-.74h-1.06c-.06.1-.12.18-.16.26-.1.16-.21.32-.35.49h1.04ZM128.21,29.35v-.87h-.71v.87h.71ZM128.21,29.9h-.71v.91h.71v-.91ZM128.44,33.27l-.68.07c-.02-.7-.03-1.24-.07-1.64l.58-.07c.08.41.13.96.16,1.64ZM129.53,33.11l-.65.07c-.03-.65-.12-1.15-.26-1.52l.55-.07c.17.38.29.88.35,1.51ZM128.79,29.35h.74v-.87h-.74v.87ZM129.53,29.9h-.74v.91h.74v-.91ZM130.58,32.83l-.61.22c-.08-.47-.19-.93-.32-1.38l.52-.13c.17.48.31.91.41,1.29ZM133.74,26.74c-.36.16-.78.27-1.25.35v1.27h1.35v.68h-1.26c.15.42.34.82.55,1.19.23.39.55.81.96,1.26l-.51.64c-.4-.53-.71-1.06-.94-1.61-.06-.12-.11-.24-.16-.37v3.33h-.71v-3.15s-.02.07-.04.1c-.3.68-.64,1.27-1.05,1.76l-.32-.86c.56-.66,1.01-1.42,1.37-2.28h-1.34v-.68h1.38v-1.18c-.35.03-.73.05-1.13.05l-.22-.68c1.16,0,2.15-.15,2.96-.45l.35.64Z"/>
          <path class="cls-3" d="M142.07,26.65c-.4.06-.83.11-1.28.15l.44.14c-.14.3-.29.57-.44.8h1.32v1.51h-.74v-.86h-5.82v.86h-.74v-1.51h1.64c-.12-.16-.25-.35-.41-.54l.53-.2c-.46,0-.92,0-1.4,0l-.19-.65c2.65,0,4.9-.11,6.75-.32l.35.62ZM137.57,28.64v.86c0,.16.09.23.29.23h1.26c.16,0,.28-.02.36-.06.08-.03.15-.21.18-.53l.71.23c-.07.46-.2.72-.36.81-.15.08-.41.12-.8.12h-1c-.12.16-.24.32-.37.45h3.01v.58c-.41.43-.86.78-1.35,1.06.68.2,1.54.35,2.6.45l-.35.7c-1.19-.18-2.22-.43-3.08-.75-.82.31-1.98.58-3.48.82l-.29-.74c1.16-.11,2.12-.26,2.87-.49-.39-.21-.73-.47-1.04-.77-.36.21-.77.41-1.23.58l-.45-.61c.63-.21,1.15-.46,1.58-.72.25-.14.48-.34.71-.58-.13-.02-.23-.07-.31-.14-.14-.12-.21-.26-.21-.44v-1.06h.74ZM136.7,29.09c-.17.39-.32.67-.44.84-.12.2-.32.42-.62.68l-.55-.49c.25-.2.45-.39.61-.58.13-.2.26-.43.36-.71l.64.26ZM138.48,27.74c-.13-.2-.28-.41-.46-.64l.39-.15c-.54.02-1.09.04-1.66.05.16.21.32.46.45.74h1.28ZM138.61,32.09c.43-.16.82-.4,1.17-.71h-2.37c.35.28.74.51,1.2.71ZM139.44,29.15l-.49.49c-.21-.21-.51-.45-.9-.71l.44-.42c.36.21.68.43.94.64ZM140.03,27.74c.16-.29.32-.59.45-.91-.54.05-1.11.08-1.72.11.16.24.32.51.47.81h.8ZM142,30.25l-.64.45c-.26-.44-.63-.96-1.1-1.55l.55-.32c.5.55.9,1.02,1.19,1.42Z"/>
          <path class="cls-3" d="M145.29,26.26c-.22.66-.44,1.22-.68,1.68v5.52h-.74v-4.34c-.22.3-.46.6-.71.9l-.26-.91c.35-.43.65-.88.92-1.34.26-.41.53-1.01.78-1.8l.68.29ZM147.22,26.17c-.11.28-.21.54-.32.77h3.47c-.13.72-.36,1.43-.68,2.12l-.77-.23c.21-.32.4-.72.54-1.19h-2.91c-.35.69-.72,1.26-1.1,1.7l-.54-.68c.68-.8,1.19-1.69,1.54-2.68l.77.16ZM146.93,29.35c-.3,1.12-.72,2.08-1.25,2.89l-.71-.44c.56-.81.96-1.68,1.19-2.61l.77.16ZM148.21,28.13v4.54c0,.3-.07.5-.21.62-.13.12-.36.19-.69.19h-1.16l-.16-.81c.44.05.8.07,1.09.07.21,0,.32-.07.32-.2v-4.41h.81ZM150.47,32.09l-.74.32c-.35-1.14-.72-2.17-1.13-3.05l.74-.23c.43.93.8,1.92,1.13,2.96Z"/>
        </g>
        <g>
          <g>
            <rect class="cls-3" x="62.75" y="26.2" width=".88" height="6.65"/>
            <rect class="cls-3" x="61.15" y="30.04" width="4.11" height=".64"/>
            <rect class="cls-3" x="60.98" y="31.25" width="4.53" height=".64"/>
            <rect class="cls-3" x="60.94" y="27.7" width="4.88" height=".64"/>
            <path class="cls-3" d="M65.12,26.59h-3.76v.62h3.1c.05,0,.1.04.1.1v1.49c0,.05-.04.1-.1.1h-3.1v.61h4.05v-2.63c0-.16-.13-.29-.29-.29Z"/>
            <path class="cls-3" d="M58.95,26.52v.66h.84s.13-.03.08.14c-.05.16-.97,2.14-.97,2.14h1.2s-.03,1.15-.31,1.86c-.28.71-1.15,1.76-1.15,1.76h1.01s1.02-1.23,1.2-2.37c.18-1.14.14-1.6.14-1.6,0,0-.03-.25-.28-.25h-.61l.74-1.7s.27-.66-.28-.66-1.6.01-1.6.01Z"/>
            <path class="cls-3" d="M58.83,30.11h.8s.03.86.49,1.53c.47.67,1.32.82,1.93.82h3.67v.69h-4.08s-1.21.04-2.03-1.06c-.81-1.1-.79-1.99-.79-1.99Z"/>
          </g>
          <g>
            <path class="cls-3" d="M57.69,31.91c-.05.36-.12.63-.23.82-.19.29-.41.44-.66.44h-4.94c-.31,0-.55-.09-.71-.24-.13-.13-.2-.33-.2-.56v-3.46c0-.19.06-.26.19-.26h5.9c.18,0,.3.12.3.29v2.08c0,.18-.1.3-.3.3h-5.13v.63c0,.17.02.28.06.34.06.08.13.12.22.13h4.3c.09,0,.17-.03.24-.07.08-.06.14-.12.18-.18.02-.05.06-.16.07-.27h.72ZM51.91,30.64h1.85v-1.34h-1.77c-.06,0-.08.03-.08.08v1.26ZM54.55,29.29v1.34h1.8c.06,0,.09-.03.09-.09v-1.17c0-.06-.03-.08-.09-.08h-1.8Z"/>
            <path class="cls-3" d="M56.82,26.35h-5.41c-.27,0-.49.21-.49.48v1.48h6.39v-1.48c0-.27-.22-.48-.49-.48ZM56.41,27.64s-.01.03-.04.04h-4.45l-.03-.04v-.62s0-.04.03-.03h4.45l.04.03v.62Z"/>
          </g>
          <g>
            <rect class="cls-3" x="66.98" y="26.36" width="2.53" height=".64"/>
            <rect class="cls-3" x="66.98" y="28.4" width="2.53" height=".64"/>
            <rect class="cls-3" x="66.98" y="29.45" width="2.53" height=".64"/>
            <rect class="cls-3" x="66.71" y="27.35" width="3.05" height=".64"/>
            <path class="cls-3" d="M66.84,33.15v-2.28c0-.21.18-.38.39-.38h2.01c.22,0,.39.17.39.38v2.28h-2.79ZM68.66,31.27c0-.05-.04-.1-.1-.1h-.72c-.05,0-.1.04-.1.1v1.15c0,.05.04.1.1.1h.72c.06,0,.1-.04.1-.1v-1.15Z"/>
            <g>
              <path class="cls-3" d="M70.24,30.28h.96s.52,1.38,2.73,2.87h-1.31s-1.35-.69-2.38-2.87Z"/>
              <path class="cls-3" d="M70.11,29.37v.61h2.26s.23-.02.13.25c-.1.27-.4.94-1.39,1.85-.76.7-1.24,1.04-1.24,1.04h1.31s.82-.56,1.61-1.53c.79-.97.85-1.85.85-1.85,0,0,.01-.37-.53-.37s-3,0-3,0Z"/>
              <path class="cls-3" d="M73.32,28.32s-.14.05-.14-.12v-1.42s.01-.49-.55-.49h-1.9s-.53.04-.53.54v2.14h.85v-1.87s.02-.17.15-.17h.83s.22-.05.22.22,0,1.83,0,1.83h1.53v-.66h-.46Z"/>
            </g>
          </g>
          <g>
            <path class="cls-3" d="M46.83,28.52v-.49h.57v-.25h-.57v-.49h.57v-.26h-.57s0-.49,0-.49h.57v-.36h.57v.36h.53v.49h-.53v.26h.53v.49h-.53v.25h.53v.49h-.53v.27h.67c.08,0,.11-.04.11-.11v-2.36h.83v2.77c0,.19-.1.28-.29.28h-6.14c-.19,0-.29-.1-.29-.28v-2.77h.83v2.36c0,.07.04.11.11.11h.7v-.27h-.52v-.49h.52v-.25h-.52v-.49h.52v-.26h-.52v-.49h.52v-.39h.54v.39h.5v.49h-.5v.26h.5v.49h-.5v.25h.49v.49h-.49v.27h.8v-2.62h.69v2.62h.86v-.27h-.57Z"/>
            <polygon class="cls-3" points="48.11 32.07 47.91 32.43 49.79 32.43 49.79 33.11 42.73 33.11 42.73 32.43 44.67 32.43 44.42 32.07 45.26 32.07 45.52 32.43 47.1 32.43 47.32 32.07 48.11 32.07"/>
            <rect class="cls-3" x="42.85" y="29.67" width="6.82" height=".59"/>
            <path class="cls-3" d="M48.7,30.53h-4.88c-.26,0-.47.2-.47.44v1.12h5.82v-1.12c0-.24-.21-.44-.47-.44ZM48.26,31.46s-.01.03-.04.03h-3.94l-.03-.03v-.3s0-.03.03-.03h3.94l.04.03v.3Z"/>
          </g>
        </g>
        <g>
          <g>
            <path class="cls-3" d="M45.15,6.86c1.21.82,2.51,1.97,3.9,3.45l-1.92,1.92c-1.46-1.52-2.71-2.64-3.76-3.38l1.79-1.99ZM46.07.52c1.3.84,2.67,2.01,4.13,3.53l-1.89,1.94c-1.53-1.57-2.86-2.72-4-3.45l1.77-2.02ZM58.01,5.21h-4.15c-.61,1.26-1.51,2.45-2.43,3.28l-2.21-1.64c.91-.87,1.67-1.81,2.26-2.81.47-.82.89-2.06,1.24-3.71l2.66.49s-.18.79-.3,1.27c-.13.49-.31.96-.31.96h3.24V.35h2.95v2.69h6.08v2.17h-6.08v5.2h7.13v2.16h-17.82v-2.16h7.73v-5.2Z"/>
            <path class="cls-3" d="M51.4,23.58v-8.49c0-.55.44-1.01.99-1.01h14.09c.55,0,.99.45.99,1.01v8.49h-16.08ZM64.17,16.7c0-.18-.15-.33-.33-.33h-8.75c-.19,0-.33.15-.33.33v4.36c0,.19.15.34.33.34h8.75c.18,0,.33-.15.33-.34v-4.36Z"/>
            <path class="cls-3" d="M46.72,23.64c1.36-2.05,2.52-5.89,3.13-9.32l-2.68-.41c-.46,3.17-1.67,7.15-3.65,9.73h3.21Z"/>
          </g>
          <g>
            <path class="cls-3" d="M110.35,1.12v8.52c.02.53-.25.9-.81.9h-7.19v13.11h-2.6V1.19c0-.56.27-.81.76-.81h9.06c.52,0,.79.25.79.74ZM107.74,4.46v-1.09c0-.38-.2-.56-.6-.56h-4.16c-.44,0-.65.2-.64.61v1.04h5.4ZM102.35,6.57v1.54h4.71c.46-.02.68-.24.68-.66v-.88h-5.4ZM103.22,18.61v-2.15h3.79v-2.47h-3.05v-2.13h14.45v2.13h-2.69v2.47h3.42v2.15h-3.42v5.04h-2.6v-5.04h-3.53c-.17,2.41-1.05,4.14-2.26,5.06h-3.42s2.97-1.72,3.07-5.06h-3.76ZM113.11,13.98h-3.5v2.47h3.5v-2.47ZM120.06,20.8v-10.27h-7.16c-.56-.02-.84-.3-.84-.84V1.2c.02-.55.3-.82.84-.82h8.9c.58,0,.87.17.87.89v22.39h-5.77v-2.08h2.45s.71.1.71-.78ZM120.06,4.44v-.88c0-.49-.26-.74-.79-.74h-3.98c-.44,0-.65.2-.63.61v1.01h5.4ZM114.67,6.56v.78c.02.51.27.76.76.76h4.64v-1.54h-5.4Z"/>
            <rect class="cls-3" x="112.06" y="9.59" width=".93" height=".94"/>
            <rect class="cls-3" x="109.43" y="9.59" width=".93" height=".94"/>
          </g>
          <g>
            <path class="cls-3" d="M81.35,4.24v1.57h1.71c.23,0,.55.17.55.6v6.21c.59-.97,1.17-2.08,1.73-3.33l2,1.08-2.26,4.17-1.48-.92v2.79c.02.22-.1.33-.34.33h-1.82v1.66h2v.2c.75-1.26,1.36-2.39,1.82-3.38l1.97,1.1c-1.02,1.96-1.82,3.38-2.4,4.25l-1.39-.9v.89h-2v3.13h-2.5v-3.13h-2.79v-2.17h2.79v-1.66h-2.05c-.21,0-.32-.11-.32-.33V6.41c0-.42.3-.6.5-.6h1.77v-1.57h-2.05v-.3l-1.66,1.89c-1.49-1.33-2.75-2.31-3.79-2.94l1.58-2.03c1.17.67,2.46,1.66,3.87,2.97v-1.78h2.05V.35h2.5v1.71h2.1v2.18h-2.1ZM89.45,19.36l.31-.52c.74-1.47,1.23-2.68,1.47-3.63l2.08.9c-.49,1.41-1.1,2.85-1.81,4.32l-1.74-.87-.31-.19ZM89.51,12.91l.26-.52,1.53-3.35,2.02.97c-.51,1.28-1.13,2.61-1.87,3.99l-1.69-.95-.26-.15ZM92.93,21.59c.55-.02.66-.36.66-.73V7.88c0-.24-.13-.36-.4-.36h-2.66v-2.23h4.26s1.09-.16,1.09.82v17.55h-4.81v-2.1l1.87.02ZM73.31,6.71c.93.7,1.91,1.66,2.92,2.89l-1.92,1.71c-1.07-1.24-2.02-2.17-2.84-2.76l1.84-1.84ZM81.42,10.21v-2.1c0-.08-.05-.11-.13-.08h-2.42c-.07-.03-.11,0-.11.08v2.1h2.66ZM78.76,12.44v1.97c0,.07.04.1.11.1h2.42l.13-.1v-1.97h-2.66Z"/>
            <path class="cls-3" d="M94.46,2.95c-.78-1.1-.93-1.56-1.14-1.89-.2-.33-.38-.71-1.08-.71h-4.08c-.7,0-.88.37-1.08.71-.21.33-.35.76-1.09,1.89-.75,1.14-2.63,2.41-2.63,2.41h2.98c1.59-.96,2.3-2.59,2.65-3.18.29-.48.88-.46.88-.46h.58s.63-.06.88.46c.28.58,1.36,2.35,2.78,3.18h2.98s-1.84-1.3-2.63-2.41Z"/>
            <path class="cls-3" d="M73.67,23.62c1.22-2.04,2.14-5.88,2.54-9.31l-2.71-.41c-.26,3.17-1.23,7.15-3.05,9.72h3.22Z"/>
            <path class="cls-3" d="M86.73,21.6c.56-.02.66-.36.66-.73V7.9c0-.24-.13-.36-.4-.36h-2.66v-2.23h4.26s1.09-.16,1.09.82v17.56h-4.81v-2.1l1.86.02Z"/>
            <rect class="cls-3" x="82.67" y="15.8" width=".93" height=".94"/>
            <rect class="cls-3" x="76.58" y="15.8" width=".93" height=".94"/>
          </g>
          <g>
            <path class="cls-3" d="M136.04,13.33h-5.94s-.24-.05-.34.09c-.09.13-.06.3-.06.3v1.61h4.98c.52-.02.79.21.81.68v7.64h-8.36v-2.12h5.36c.54,0,.56-.39.56-.39v-2.96c.02-.22-.14-.37-.29-.36h-5.62v-6.41c0-.17.06-.32.19-.44l.4-.13h5.91v-1.41c.02-.26-.13-.4-.43-.4h-3.72c-1.22.39-2.46.68-3.7.89l-1.43-2.33c1.62-.23,3.06-.56,4.32-1l.11-.05h.19v-.05c-1.19-.96-2.12-1.65-2.81-2.05l1.71-1.99c.9.56,2.12,1.48,3.67,2.78,1.11-.7,1.95-1.46,2.51-2.28h-4.7V.46h7.41s.81-.01,1.04.31c.32.45.11,1.08.11,1.08-.85,1.92-2.05,3.49-3.62,4.69h1.24c.3-.02.51.27.51.57v6.22Z"/>
            <path class="cls-3" d="M146.32,12.06s-.5,0-.5-.73v-2.85s.04-1.64-1.91-1.64h-4.78s-1.83.14-1.83,1.83v4.94h2.48v-4.57s.05-.57.51-.57h2.26s.76-.08.76.73v4.43h4.6v-1.56h-1.6Z"/>
            <path class="cls-3" d="M136.99,16.59h2.87s3.11,4.32,9.26,7.13h-4.53s-3.72-1.56-7.6-7.13Z"/>
            <path class="cls-3" d="M136.42,14.3v1.79h8.01s.69-.03.34.66c-.34.67-1.27,1.99-4.7,4.3-2.63,1.77-4.31,2.61-4.31,2.61h4.13s2.12-.99,4.87-3.44c2.75-2.44,3.32-4.38,3.32-4.38,0,0,.39-1.54-1.48-1.54s-10.18,0-10.18,0Z"/>
            <path class="cls-3" d="M144.05,6.86c-2.07-1.37-3.89-2.86-5.45-4.48l1.48-2.05,1.76,1.82c.99-.85,1.61-1.52,2.19-2.15l1.76,1.48c-.58.66-1.2,1.49-2,2.31l.86.61c.88-.92,1.51-1.62,2.01-2.31l2,1.56c-.49.68-1.03,1.31-1.77,2.08,1.22.58,2.61,1.15,4.16,1.69l-1.7,2.07-3.35-1.53"/>
          </g>
        </g>
      </g>
      <g>
        <g>
          <g>
            <path class="cls-1" d="M21.82,20.77c1.29-1.44,2.07-3.34,2.07-5.42l5.35-.96c0,5.97-4.84,10.81-10.81,10.81,0,0-3.77.16-5.5-2.22.88.33,1.83.51,2.82.51,2.41,0,4.58-1.05,6.07-2.72"/>
            <path class="cls-1" d="M23.89.39v23.33c2.9-1.71,4.95-4.72,5.3-8.24.04.39.06.79.06,1.19,0,4.42-2.1,8.35-5.35,10.85v5.83h7.47V.39h-7.47Z"/>
          </g>
          <g>
            <path class="cls-1" d="M9.54,12.96c-1.28,1.44-2.07,3.34-2.07,5.42l-5.35.96c0-5.97,4.84-10.81,10.81-10.81,0,0,3.77-.16,5.5,2.22-.88-.33-1.83-.51-2.82-.51-2.41,0-4.58,1.05-6.07,2.72"/>
            <path class="cls-1" d="M7.47,33.34V10.02c-2.9,1.71-4.94,4.72-5.3,8.24-.03-.39-.05-.79-.05-1.19,0-4.42,2.1-8.35,5.35-10.85V.39H0v32.96h7.47Z"/>
          </g>
        </g>
        <path class="cls-2" d="M20.61,16.86c0,2.72-2.2,4.93-4.93,4.93s-4.93-2.21-4.93-4.93,2.21-4.93,4.93-4.93,4.93,2.2,4.93,4.93Z"/>
      </g>
    </g>
  </g>
</svg>