<?xml version="1.0" encoding="UTF-8"?>
<svg id="_圖層_2" data-name="圖層 2" xmlns="http://www.w3.org/2000/svg" viewBox="0 0 433.5 795.86">
  <g id="_圖層_1-2" data-name="圖層 1">
    <path d="M1.33,.7L145.27,273.81c14.08,26.67,26.78,54.84,33.78,84.27,9.31,39.09,8.19,81.48,10.21,121.54,2.32,45.96,4.64,91.91,6.96,137.87,0,29.53,3,59.38,4.49,88.88,.11,2.12,.49,4.26,.81,6.36,.82,5.4,1.9,10.76,3.22,16.06,1.78,7.15,3.99,14.2,6.77,21.02,3.04,7.46,6.77,14.69,11.49,21.24,4.72,6.56,10.47,12.44,17.35,16.73,5.92,3.69,12.74,6.63,19.83,6.59,2.35-.02,4.71-.12,7.06-.17,5.59-.12,11.17-.24,16.76-.36,7.44-.16,14.88-.32,22.32-.47,8.55-.18,17.1-.36,25.65-.55l26.74-.57c8.54-.18,17.07-.36,25.61-.54,7.41-.16,14.83-.32,22.24-.47,5.55-.12,11.09-.24,16.64-.35l8.81-.19,.83-.02" fill="none" stroke="#ef701b" stroke-miterlimit="10" stroke-width="3"/>
  </g>
</svg>